{"asset":{"generator":"Khronos glTF Blender I/O v4.4.56","version":"2.0","extras":{"source":"https://polyhaven.com/a/island_tree_02","license":"CC0-1.0","modifications":"Geometry simplified; textures resized to 512px WebP; leaf blending replaced with solid geometric leaves."}},"extensionsUsed":["KHR_materials_specular","KHR_materials_ior","KHR_texture_transform"],"extensionsRequired":["KHR_texture_transform"],"scene":0,"scenes":[{"name":"Scene","nodes":[0]}],"nodes":[{"mesh":0,"name":"island_tree_02_LOD0"}],"materials":[{"doubleSided":true,"name":"island_tree_02","normalTexture":{"index":0},"pbrMetallicRoughness":{"baseColorTexture":{"index":1},"metallicFactor":0,"metallicRoughnessTexture":{"index":2}},"alphaMode":"OPAQUE"},{"alphaMode":"OPAQUE","doubleSided":true,"name":"island_tree_02_leaves","normalTexture":{"index":3},"pbrMetallicRoughness":{"baseColorTexture":{"index":4},"metallicFactor":0,"metallicRoughnessTexture":{"index":5}}},{"doubleSided":true,"extensions":{"KHR_materials_specular":{"specularFactor":0.4100000262260437},"KHR_materials_ior":{"ior":1.4500000476837158}},"name":"island_tree_02_branches","normalTexture":{"extensions":{"KHR_texture_transform":{"offset":[0,-2.4000000953674316],"scale":[15,3.4000000953674316]}},"index":6,"scale":0.5},"pbrMetallicRoughness":{"baseColorTexture":{"extensions":{"KHR_texture_transform":{"offset":[0,-2.4000000953674316],"scale":[15,3.4000000953674316]}},"index":7},"metallicFactor":0,"metallicRoughnessTexture":{"extensions":{"KHR_texture_transform":{"offset":[0,-2.4000000953674316],"scale":[15,3.4000000953674316]}},"index":8}},"alphaMode":"OPAQUE"}],"meshes":[{"name":"mesh.001","primitives":[{"attributes":{"POSITION":0,"NORMAL":1,"TEXCOORD_0":2},"indices":3,"material":0},{"attributes":{"POSITION":4,"NORMAL":5,"TEXCOORD_0":6},"indices":7,"material":1},{"attributes":{"POSITION":8,"NORMAL":9,"TEXCOORD_0":10},"indices":11,"material":2}]}],"textures":[{"sampler":0,"source":0},{"sampler":0,"source":1},{"sampler":0,"source":2},{"sampler":0,"source":3},{"sampler":0,"source":4},{"sampler":0,"source":5},{"sampler":0,"source":6},{"sampler":0,"source":7},{"sampler":0,"source":8}],"images":[{"mimeType":"image/webp","name":"island_tree_02_nor_gl","uri":"island_tree_02_nor_gl_1k.webp"},{"mimeType":"image/webp","name":"island_tree_02_diff","uri":"island_tree_02_diff_1k.webp"},{"mimeType":"image/webp","name":"island_tree_02_rough","uri":"island_tree_02_arm_1k.webp"},{"mimeType":"image/webp","name":"island_tree_02_leaves_nor_gl","uri":"island_tree_02_leaves_nor_gl_1k.webp"},{"mimeType":"image/webp","name":"island_tree_02_leaves_diff-island_tree_02_leaves_alpha","uri":"island_tree_02_leaves_diff_1k.webp"},{"mimeType":"image/webp","name":"island_tree_02_leaves_rough","uri":"island_tree_02_leaves_arm_1k.webp"},{"mimeType":"image/webp","name":"island_tree_02_branches_nor_gl","uri":"island_tree_02_branches_nor_gl_1k.webp"},{"mimeType":"image/webp","name":"island_tree_02_branches_diff","uri":"island_tree_02_branches_diff_1k.webp"},{"mimeType":"image/webp","name":"island_tree_02_branches_rough","uri":"island_tree_02_branches_arm_1k.webp"}],"accessors":[{"bufferView":0,"componentType":5126,"count":2382,"type":"VEC3","byteOffset":0,"min":[-1.1161692142486572,-0.017011718824505806,-0.45452672243118286],"max":[1.2400846481323242,2.5985612869262695,2.2639734745025635]},{"bufferView":1,"componentType":5126,"count":2382,"type":"VEC3","byteOffset":0},{"bufferView":2,"componentType":5126,"count":2382,"type":"VEC2","byteOffset":0},{"componentType":5125,"type":"SCALAR","bufferView":3,"byteOffset":0,"count":10491},{"bufferView":4,"componentType":5126,"count":57804,"type":"VEC3","byteOffset":0,"min":[-1.8554331064224243,1.247714877128601,-1.1138885021209717],"max":[1.9748742580413818,3.3892130851745605,2.956543207168579]},{"bufferView":5,"componentType":5126,"count":57804,"type":"VEC3","byteOffset":0},{"bufferView":6,"componentType":5126,"count":57804,"type":"VEC2","byteOffset":0},{"componentType":5125,"type":"SCALAR","bufferView":7,"byteOffset":0,"count":66000},{"bufferView":8,"componentType":5126,"count":2987,"type":"VEC3","byteOffset":0,"min":[-1.9207043647766113,1.3958075046539307,-0.9220821857452393],"max":[1.9486010074615479,3.285335063934326,2.85457444190979]},{"bufferView":9,"componentType":5126,"count":2987,"type":"VEC3","byteOffset":0},{"bufferView":10,"componentType":5126,"count":2987,"type":"VEC2","byteOffset":0},{"componentType":5125,"type":"SCALAR","bufferView":11,"byteOffset":0,"count":8343}],"bufferViews":[{"buffer":0,"byteOffset":0,"byteLength":28584},{"buffer":0,"byteOffset":28584,"byteLength":28584},{"buffer":0,"byteOffset":57168,"byteLength":19056},{"buffer":0,"byteOffset":76224,"byteLength":41964},{"buffer":0,"byteOffset":118188,"byteLength":693648},{"buffer":0,"byteOffset":811836,"byteLength":693648},{"buffer":0,"byteOffset":1505484,"byteLength":462432},{"buffer":0,"byteOffset":1967916,"byteLength":264000},{"buffer":0,"byteOffset":2231916,"byteLength":35844},{"buffer":0,"byteOffset":2267760,"byteLength":35844},{"buffer":0,"byteOffset":2303604,"byteLength":23896},{"buffer":0,"byteOffset":2327500,"byteLength":33372}],"samplers":[{"magFilter":9729,"minFilter":9987}],"buffers":[{"uri":"tree.bin","byteLength":2360872}]}